<svg id="no-stroke" xmlns="http://www.w3.org/2000/svg" viewBox="0 0 960 960">
    <path d="M480,160c-176,0-320,144-320,320s144,320,320,320,320-144,320-320-144-320-320-320ZM592,608c-3.92,24.16-14.04,32-21.88,32-14.04,1.96-26.12-7.84-39.84-16-3.92-1.96-7.84-5.88-10.12-7.84-14.04-10.12-26.12-17.96-37.88-26.12-10.12-7.84-19.92-14.04-33.96-21.88-28.08-17.96-16-28.08,0-44.08,1.96-1.96,5.88-3.92,7.84-7.84l14.04-14.04c24.16-24.16,72.16-67.92,74.12-72.16,0,0,0-3.92-1.96-5.88-1.96-1.96-3.92-1.96-5.88,0-1.96,0-48,30.04-133.88,90.12-12.08,7.84-24.16,14.04-33.96,12.08-12.08,0-33.96-5.88-49.96-12.08l-5.88-1.96c-16-5.88-28.08-10.12-28.08-17.96s7.84-12.08,23.84-17.96c94.04-39.84,156.08-67.92,186.12-80,87.84-35.92,108.08-44.08,120.16-44.08s7.84,1.96,12.08,3.92c1.96,1.96,3.92,5.88,3.92,7.84v12.08c-5.88,51.92-28.08,174.04-37.88,231.84h-.98Z"/>
</svg>
