<?xml version="1.0" encoding="UTF-8"?>
<svg id="no-stroke" xmlns="http://www.w3.org/2000/svg" viewBox="0 0 960 960">

  <path  d="M796.91,465.6c-2.97-81.73-37.42-159.15-96.13-216.1-58.71-56.95-137.14-89.01-218.94-89.5h-1.53c-55.09-.03-109.22,14.27-157.09,41.5-47.87,27.23-87.84,66.45-115.95,113.83-28.11,47.35-43.4,101.22-44.38,156.28-.98,55.09,12.41,109.45,38.82,157.78l-28.05,167.84c-.03.36,0,.69.1,1.01.1.33.26.65.49.91s.52.46.82.62c.33.13.65.23,1.01.23h.49l166.01-36.93c42.91,20.6,89.86,31.28,137.44,31.28h9.08c41.86-1.21,83.07-10.68,121.24-27.89,38.17-17.21,72.56-41.8,101.19-72.36,28.64-30.56,50.91-66.48,65.57-105.73,14.66-39.22,21.42-80.95,19.85-122.81h0l-.03.03ZM487.49,739.17h-7.51c-42.06.07-83.49-10.02-120.85-29.32l-8.49-4.44-112.59,26.61,20.77-113.89-4.83-8.16c-23.05-39.28-35.46-83.92-36.02-129.47-.56-45.55,10.74-90.45,32.85-130.29,22.07-39.84,54.14-73.24,93.06-96.91,38.92-23.67,83.33-36.8,128.85-38.11h7.61c68.73.2,134.66,27.4,183.54,75.76,48.88,48.33,76.83,113.96,77.78,182.69.98,68.73-25.11,135.12-72.59,184.82-47.51,49.7-112.62,78.76-181.32,80.88l-.29-.1.03-.07Z"/>
  <path  d="M371.83,325.58c-3.92.07-7.77.95-11.36,2.55-3.59,1.6-6.79,3.89-9.47,6.76-7.58,7.74-28.7,26.42-29.91,65.6-1.21,39.18,26.16,77.94,29.98,83.36,3.82,5.42,52.34,90.06,132.24,124.38,46.96,20.24,67.56,23.71,80.91,23.71,5.49,0,9.67-.59,14.01-.85,14.63-.91,47.67-17.83,54.89-36.21,7.22-18.42,7.67-34.48,5.78-37.71-1.89-3.23-7.12-5.52-14.96-9.67-7.84-4.11-46.37-24.72-53.58-27.59-2.68-1.24-5.58-1.99-8.52-2.22-1.93.1-3.79.65-5.45,1.67-1.67.98-3.04,2.35-4.05,4.02-6.43,8-21.19,25.4-26.16,30.43-1.08,1.24-2.42,2.25-3.92,2.94s-3.13,1.08-4.77,1.11c-3.04-.13-6.01-.95-8.72-2.35-23.31-9.89-44.6-24.1-62.69-41.83-16.91-16.69-31.28-35.76-42.58-56.65-4.38-8.1,0-12.28,3.98-16.1,3.98-3.79,8.26-9.04,12.38-13.58,3.36-3.89,6.2-8.2,8.36-12.87,1.11-2.16,1.7-4.57,1.67-7.02-.03-2.45-.69-4.83-1.86-6.96-1.89-4.05-16.1-43.92-22.73-59.89-5.39-13.68-11.85-14.11-17.47-14.53-4.64-.33-9.93-.49-15.25-.65h-.69"/>
</svg>
